<svg width="263" height="460" viewBox="0 0 263 460" fill="none" xmlns="http://www.w3.org/2000/svg">
<path d="M107.05 19.59H155.52C168.87 19.59 175.79 35.86 166.21 45.41C163.49 48.16 159.69 49.86 155.52 49.86H107.05C93.7 49.86 86.78 33.59 96.36 24.01C99.09 21.29 102.89 19.59 107.05 19.59ZM155.53 29.57H107.06C102.58 29.57 100.14 35.07 103.43 38.36C104.37 39.3 105.64 39.86 107.06 39.86H155.53C160.01 39.86 162.45 34.39 159.16 31.1C158.22 30.16 156.94 29.57 155.53 29.57ZM90.44 445.81C90.44 458.68 68.39 464.04 55.38 456.64C50.87 454.09 48.07 450.26 48.07 445.81V440.75C48.07 437.989 45.831 435.75 43.07 435.75H28.31C18.42 435.75 10.37 427.7 10.37 417.81V75.8548C10.37 73.7218 8.96699 71.8888 7.16479 70.7478C2.8313 68.0028 0 63.1728 0 57.7798V33.4C0 25.55 6.83 19.54 14.68 19.54H69.76C73.5 19.54 74.01 16.71 74.52 13.9C75.79 6.95 77.06 0 89.08 0H173.5C185.52 0 186.79 6.94 188.07 13.89C188.58 16.7 189.09 19.53 192.83 19.53H247.91C255.76 19.53 262.59 25.54 262.59 33.39V57.7698C262.59 63.1598 259.761 67.9948 255.431 70.7378C253.627 71.8808 252.22 73.7148 252.22 75.8498V417.8C252.22 427.69 244.17 435.74 234.28 435.74H219.52C216.759 435.74 214.52 437.979 214.52 440.74V445.8C214.52 458.67 192.44 464.03 179.43 456.63C174.92 454.08 172.14 450.25 172.14 445.8V440.74C172.14 437.979 169.901 435.74 167.14 435.74H95.44C92.679 435.74 90.44 437.979 90.44 440.74V445.81ZM63.07 435.75C60.309 435.75 58.07 437.989 58.07 440.75V445.81C58.07 448.39 70.12 452.58 78.22 447.96C79.61 447.19 80.46 446.4 80.46 445.81V440.75C80.46 437.989 78.221 435.75 75.46 435.75H63.07ZM187.12 435.75C184.359 435.75 182.12 437.989 182.12 440.75V445.81C182.12 448.39 194.17 452.58 202.3 447.96C203.66 447.19 204.51 446.4 204.51 445.81V440.75C204.51 437.989 202.271 435.75 199.51 435.75H187.12ZM252.575 38.61C252.578 38.61 252.58 38.6077 252.58 38.6049V33.4C252.58 31.13 250.28 29.55 247.9 29.55H192.82C180.77 29.55 179.5 22.61 178.25 15.66C177.74 12.83 177.23 10.02 173.49 10.02H89.07C85.33 10.02 84.82 12.83 84.31 15.66C83.06 22.6 81.79 29.55 69.74 29.55H14.66C12.28 29.55 9.98 31.14 9.98 33.4V57.7798C9.98 60.7298 12.42 63.1398 15.34 63.1398H247.21C250.13 63.1398 252.57 60.7298 252.57 57.7798V38.615C252.57 38.6122 252.572 38.61 252.575 38.61Z" fill="black"/>
</svg>
